<svg width="127" height="533" xmlns="http://www.w3.org/2000/svg"><defs><linearGradient x1="44.915%" y1="36.402%" x2="58.904%" y2="56.476%" id="a"><stop stop-color="#DCFBBD" offset="0%"/><stop stop-color="#C4F9C2" offset="100%"/></linearGradient></defs><g fill="none" fill-rule="evenodd"><path d="M60.75 481.424c10.618 54.624 118.348 72.55 150.93 27.369 32.581-45.182-33.334-69.433 27.883-89.368 61.217-19.935 29.473-91.25 26.366-141.1-3.108-49.85-43.77-89.848-64.336-144.18-15.527-41.021-17.443-78.084-33.354-81.652-36.986-8.296 98.12-34.46 61.753-57.026C193.626-27.098 116.128-29.844 89 59.625c-27.128 89.47-26.625 212.422-66.388 249.432-39.762 37.01-17.632 64.096 0 94.146 17.632 30.05 27.52 23.596 38.138 78.22z" fill="#E9FFE9"/><path d="M78.974 53.018c-55.59 0-83.524 45.385-45.428 85.924 38.095 40.539 37.549 39.831 45.428 103.625 7.88 63.793 71.601 63.064 97.47 63.429 25.87.364 162.277-21.814 177.462-56.481 15.185-34.667 115.963 16.585 145.023-14.757 29.06-31.342 20.106-52.185-62.458-95.816-82.565-43.632-149.573-19.85-178.287-65.87-28.713-46.02-57.923-68.659-90.751-57.103-32.829 11.556-32.869 37.05-88.459 37.05z" fill="url(#a)" transform="rotate(-101 250.014 262.839)"/></g></svg>