<svg width="115" height="349" xmlns="http://www.w3.org/2000/svg"><defs><linearGradient x1="44.915%" y1="35.65%" x2="58.904%" y2="56.834%" id="a"><stop stop-color="#DCFBBD" offset="0%"/><stop stop-color="#C4F9C2" offset="100%"/></linearGradient></defs><g fill="none" fill-rule="evenodd"><path d="M-73.77 331.75c27.823 48.19 79.43 33.793 95.526-19.535 16.097-53.328 19.859-51.325 71.25-90.104 51.392-38.78-1.84-95.873-21.008-141.996C52.831 33.992 1.362 9.41-35.772-35.265c-28.038-33.731-41.915-68.15-58.121-66.345-37.671 4.198 9.305-12.225-32.426-21.721-41.732-9.496-55.33 8.704-51.852 102.13 3.478 93.428 55.661 161.65 30.114 209.589-25.547 47.939-43.82 51.209-17.364 73.88 26.454 22.673 63.827 21.29 91.65 69.481z" fill="#E9FFE9"/><path d="M71.974 48.018c-55.59 0-83.524 45.385-45.428 85.924 38.095 40.539 37.549 39.831 45.428 103.625 7.88 63.793 71.601 63.064 97.47 63.429 25.87.364 162.277-21.814 177.462-56.481 15.185-34.667 115.963 16.585 145.023-14.757 29.06-31.342 20.106-52.185-62.458-95.816-82.565-43.632-167.651-32.569-196.365-78.588-28.713-46.02-22.415-63.452-55.243-51.896-32.829 11.556-50.299 44.56-105.889 44.56z" fill="url(#a)" transform="rotate(-120 66.644 234.382)"/></g></svg>